<svg version="1.1" viewBox="0 0 31 28">
  <path fill="currentColor" d="M31,8.6c0,2.2-.7,4.2-1.8,6.1-2.2,3.9-5.4,7.1-8.8,9.9-1.2,1-2.6,2-3.8,3-.7.6-1.4.5-2.1,0-4.2-3-8.1-6.3-11.1-10.6C1.5,14.6.2,12,0,8.9-.2,5.2,2.2,1.2,6.6.2c3-.7,5.5.5,7.7,2.5,1.3,1.2,1.3,1.2,2.6,0,3.3-3.1,7-3.6,10.6-1.2,2.4,1.6,3.5,4.1,3.6,7ZM1.6,8.6c.2,2.7,1.2,5,2.7,7.1,2.9,4,6.5,7.2,10.4,10.1.6.4,1,.4,1.5,0,3-2.1,5.8-4.6,8.3-7.3,1.5-1.7,2.9-3.5,3.8-5.6.8-1.8,1.3-3.6,1-5.6-.7-4.4-5.4-6.9-9.4-4.9-1.4.7-2.4,1.7-3.4,2.8-.8.8-1.2.8-2.1,0-.5-.5-1.1-1.1-1.6-1.6-2.2-2-4.7-2.5-7.4-1.3-2.7,1.2-3.7,3.5-3.9,6.3h0Z"/>
</svg>