<svg viewBox="0 0 16 25" fill="none">
<path d="M7.5 9.96143C7.5 10.2376 7.72386 10.4614 8 10.4614C8.27614 10.4614 8.5 10.2376 8.5 9.96143L7.5 9.96143ZM8.35355 0.530949C8.15829 0.335687 7.84171 0.335687 7.64645 0.530949L4.46447 3.71293C4.2692 3.90819 4.2692 4.22477 4.46447 4.42004C4.65973 4.6153 4.97631 4.6153 5.17157 4.42004L8 1.59161L10.8284 4.42004C11.0237 4.6153 11.3403 4.6153 11.5355 4.42004C11.7308 4.22477 11.7308 3.90819 11.5355 3.71293L8.35355 0.530949ZM8.5 9.96143L8.5 0.884502L7.5 0.884502L7.5 9.96143L8.5 9.96143Z" fill="currentColor"/>
<path d="M10.2643 7.69238H12.8864C14.0538 7.69238 15 8.76629 15 10.0905V21.1788C15 22.5034 14.0535 23.577 12.8864 23.577H3.11363C1.9462 23.577 1 22.5031 1 21.1788V10.0905C1 8.76629 1.9465 7.69238 3.11363 7.69238H5.45963" stroke="currentColor" stroke-linecap="round" stroke-linejoin="round"/>
</svg>
