<?xml version="1.0" encoding="UTF-8"?>
<svg id="Layer_1" xmlns="http://www.w3.org/2000/svg" version="1.1" viewBox="0 0 569.2 802.4">
  <!-- Generator: Adobe Illustrator 29.0.1, SVG Export Plug-In . SVG Version: 2.1.0 Build 192)  -->
  <defs>
    <style>
      .st0 {
        fill: #7a818b;
      }
    </style>
  </defs>
  <path class="st0" d="M41.8,428.6C1.5,342.2-17.3,269.8,20.5,177.2,95.2-5.5,328.8-59,475.8,73.9c71,64.1,110,166.7,86.4,261.6-16.5,66.6-56.2,138.6-91,197.7-55,93.3-118.8,182.1-184.6,267.9l-2.4,1.4c-49.7-62.6-96.3-127.8-139.9-194.8M273.5,162.4c-82.9,7.5-126.7,104.7-78.5,172.8,44.4,62.8,139.4,61.4,181.4-3,50.8-77.8-11.2-178.2-102.9-169.8Z"/>
</svg>